<?xml version="1.0" encoding="UTF-8" standalone="no"?>
<svg
   xmlns:dc="http://purl.org/dc/elements/1.1/"
   xmlns:cc="http://creativecommons.org/ns#"
   xmlns:rdf="http://www.w3.org/1999/02/22-rdf-syntax-ns#"
   xmlns:svg="http://www.w3.org/2000/svg"
   xmlns="http://www.w3.org/2000/svg"
   xmlns:sodipodi="http://sodipodi.sourceforge.net/DTD/sodipodi-0.dtd"
   xmlns:inkscape="http://www.inkscape.org/namespaces/inkscape"
   width="640"
   height="480"
   id="svg2"
   version="1.1"
   inkscape:version="0.91 r13725"
   sodipodi:docname="vagabond_thumbsup.svg">
  <metadata
     id="metadata10">
    <rdf:RDF>
      <cc:Work
         rdf:about="">
        <dc:format>image/svg+xml</dc:format>
        <dc:type
           rdf:resource="http://purl.org/dc/dcmitype/StillImage" />
        <dc:title></dc:title>
      </cc:Work>
    </rdf:RDF>
  </metadata>
  <defs
     id="defs8" />
  <sodipodi:namedview
     pagecolor="#ffffff"
     bordercolor="#666666"
     borderopacity="1"
     objecttolerance="10"
     gridtolerance="10"
     guidetolerance="10"
     inkscape:pageopacity="0"
     inkscape:pageshadow="2"
     inkscape:window-width="1920"
     inkscape:window-height="1147"
     id="namedview6"
     showgrid="false"
     inkscape:object-paths="false"
     inkscape:zoom="1"
     inkscape:cx="525.85022"
     inkscape:cy="556.73701"
     inkscape:window-x="-8"
     inkscape:window-y="-8"
     inkscape:window-maximized="1"
     inkscape:current-layer="svg2" />
  <path
     style="fill:#ffd4aa;stroke:#000000;stroke-width:6.13989067"
     inkscape:connector-curvature="0"
     d="m 146.1666,296.55154 c -3.28666,-11.97659 1.93192,-20.42653 13.63034,-22.07038 7.97852,-1.12104 12.61052,0.59875 33.83196,12.56191 22.58149,12.72984 24.75286,14.5471 26.6092,22.2701 2.64899,11.01743 -1.99368,18.34608 -13.53463,21.36493 -8.68352,2.27186 -11.05518,1.47767 -33.68703,-11.28057 -22.63185,-12.75824 -24.52232,-14.36668 -26.84882,-22.84527 z m 82.69503,48.6571 c 0.16847,-5.10822 8.53973,-18.10825 19.28782,-29.95276 2.38823,-2.63189 9.30508,-4.83103 15.37095,-4.887 7.29673,-0.0672 14.34716,-2.73477 20.83487,-7.88308 9.36056,-7.42714 9.93779,-8.54629 12.68405,-24.59483 2.81728,-16.46104 3.11014,-17.00632 13.93615,-25.94582 14.41043,-11.89984 20.16089,-25.735 18.29705,-44.02089 -1.35454,-13.28933 -0.78154,-15.16215 8.43347,-27.56126 8.35867,-11.24674 9.83453,-15.00762 9.54861,-24.33074 -0.18627,-6.06481 2.91879,-23.86901 6.89966,-39.56483 5.84222,-23.033632 9.88138,-33.013644 20.94449,-51.750625 0,0 5.83772,-11.932288 12.36738,-16.827589 3.18749,-2.389663 14.27713,-9.769614 14.27713,-9.769614 11.39747,-2.981896 14.43411,-2.542551 25.48582,3.687623 11.05074,6.229629 12.95961,8.578207 16.01257,19.706246 2.62342,9.559723 2.27962,14.642391 -1.41295,20.887223 -8.59034,14.527873 -22.56484,59.065966 -23.72956,75.630566 -1.21315,17.24206 4.87925,38.26058 15.84703,54.67023 12.14386,18.17013 15.51497,29.63135 14.33589,48.73929 -2.57386,25.13391 -15.88754,46.54493 -29.89149,67.21656 -32.66863,55.11315 -36.49445,59.05411 -66.0764,68.06744 -23.45764,7.14714 -35.45438,3.76232 -84.35079,-23.80202 C 232.5586,352.96404 228.69474,350.2257 228.86017,345.2088 Z m -84.0879,-113.96589 c -7.56888,-18.68994 0.25891,-31.99857 19.50425,-34.47265 13.09641,2.09247 13.39477,-0.0585 58.25193,24.89817 20.4604,10.83724 64.74007,38.7154 52.23536,60.54028 -12.17107,21.2411 -55.57733,-3.82095 -75.09957,-15.36145 -32.25611,-17.47665 -53.60941,-29.68449 -54.89037,-35.60429 z m 29.18119,-62.31372 c -2.23973,-5.46442 -1.23793,-12.24113 1.22478,-16.40603 3.88525,-6.57069 16.3678,-10.84405 21.95642,-8.35771 6.30452,2.80521 28.68956,15.91971 51.83017,29.41972 34.20354,19.95414 65.0188,38.65899 58.92156,57.40617 -8.74804,10.63913 -21.93716,7.58254 -78.83642,-24.49325 -48.57462,-27.38295 -51.82966,-29.60262 -55.09492,-37.56867 z m 55.31764,-38.50757 c 0.0345,-14.77217 1.56555,-18.15449 12.6404,-23.75355 0,0 8.05616,-2.27985 11.59445,-1.77616 11.29162,1.60737 34.76874,16.82384 34.76874,16.82384 39.95443,23.99075 38.35326,35.93752 32.51458,46.2972 -11.6339,20.63879 -39.66634,4.91315 -57.16465,-4.84468 0,0 -23.95086,-14.54683 -30.41426,-22.69806 -2.79428,-3.52403 -3.93841,-10.04896 -3.93841,-10.04896 z"
     id="path2417" />
  <path
     style="fill:none"
     d="m 327.93371,396.30636 c -14.88613,-2.87481 -30.04439,-10.03466 -71.18644,-33.62415 -19.68347,-11.28585 -24.40678,-14.67043 -24.40678,-17.48913 0,-3.50208 9.3175,-17.88044 16.85021,-26.00248 3.38712,-3.65212 6.34803,-4.78649 14.3195,-5.48601 3.09597,-0.27169 7.01669,-0.85222 8.71271,-1.29009 9.38135,-2.42196 22.04454,-12.36065 24.71359,-19.39642 0.60966,-1.60712 1.98733,-7.54605 3.06149,-13.19762 3.25387,-17.12006 3.05895,-16.72419 12.04023,-24.45332 7.37615,-6.34778 11.02082,-10.49391 14.51181,-16.50845 5.19931,-8.95774 6.97862,-18.37133 5.94924,-31.47491 -0.3442,-4.38158 -0.47692,-8.95942 -0.29494,-10.17298 0.51732,-3.44973 2.29232,-6.68671 8.17667,-14.91136 8.58094,-11.99372 9.75321,-14.91274 10.18513,-25.36151 0.65977,-15.96064 7.73442,-47.48837 14.64103,-65.246849 3.42564,-8.808124 14.10917,-28.808188 18.75407,-35.108503 3.05928,-4.149587 4.84339,-5.709767 12.25853,-10.719929 5.68893,-3.843812 7.51329,-4.807658 10.36814,-5.477676 6.74359,-1.582684 10.99562,-0.472782 21.00682,5.483386 4.93323,2.935023 8.29382,5.930081 9.69454,8.640048 1.26906,2.455239 3.40869,9.892282 4.06737,14.137564 0.71061,4.580018 0.0791,7.109741 -3.55666,14.246684 -8.12334,15.946134 -18.29354,47.189005 -21.93126,67.372885 -0.95341,5.28994 -1.06237,7.28549 -0.81903,15 0.5633,17.85787 5.36786,32.12697 17.11105,50.81825 10.16988,16.18708 12.89668,24.36392 12.89668,38.67327 0,19.29861 -7.05778,37.91098 -24.48721,64.57627 -2.65055,4.05509 -8.48362,13.43644 -12.96238,20.84746 -22.6619,37.49875 -28.80584,43.94919 -48.40293,50.81761 -10.70957,3.7535 -17.03614,5.17673 -23.8983,5.37614 -3.35593,0.0975 -6.67373,0.0668 -7.37288,-0.0682 z"
     id="path3341"
     inkscape:connector-curvature="0" />
  <path
     style="fill:none"
     d="m 327.93371,396.30636 c -14.88613,-2.87481 -30.04439,-10.03466 -71.18644,-33.62415 -19.68347,-11.28585 -24.40678,-14.67043 -24.40678,-17.48913 0,-3.50208 9.3175,-17.88044 16.85021,-26.00248 3.38712,-3.65212 6.34803,-4.78649 14.3195,-5.48601 3.09597,-0.27169 7.01669,-0.85222 8.71271,-1.29009 9.38135,-2.42196 22.04454,-12.36065 24.71359,-19.39642 0.60966,-1.60712 1.98733,-7.54605 3.06149,-13.19762 3.25387,-17.12006 3.05895,-16.72419 12.04023,-24.45332 7.37615,-6.34778 11.02082,-10.49391 14.51181,-16.50845 5.19931,-8.95774 6.97862,-18.37133 5.94924,-31.47491 -0.3442,-4.38158 -0.47692,-8.95942 -0.29494,-10.17298 0.51732,-3.44973 2.29232,-6.68671 8.17667,-14.91136 8.58094,-11.99372 9.75321,-14.91274 10.18513,-25.36151 0.65977,-15.96064 7.73442,-47.48837 14.64103,-65.246849 3.42564,-8.808124 14.10917,-28.808188 18.75407,-35.108503 3.05928,-4.149587 4.84339,-5.709767 12.25853,-10.719929 5.68893,-3.843812 7.51329,-4.807658 10.36814,-5.477676 6.74359,-1.582684 10.99562,-0.472782 21.00682,5.483386 4.93323,2.935023 8.29382,5.930081 9.69454,8.640048 1.26906,2.455239 3.40869,9.892282 4.06737,14.137564 0.71061,4.580018 0.0791,7.109741 -3.55666,14.246684 -8.12334,15.946134 -18.29354,47.189005 -21.93126,67.372885 -0.95341,5.28994 -1.06237,7.28549 -0.81903,15 0.5633,17.85787 5.36786,32.12697 17.11105,50.81825 10.16988,16.18708 12.89668,24.36392 12.89668,38.67327 0,19.29861 -7.05778,37.91098 -24.48721,64.57627 -2.65055,4.05509 -8.48362,13.43644 -12.96238,20.84746 -22.6619,37.49875 -28.80584,43.94919 -48.40293,50.81761 -10.70957,3.7535 -17.03614,5.17673 -23.8983,5.37614 -3.35593,0.0975 -6.67373,0.0668 -7.37288,-0.0682 z"
     id="path3343"
     inkscape:connector-curvature="0" />
  <path
     style="fill:none"
     d="m 327.93371,396.30636 c -14.88613,-2.87481 -30.04439,-10.03466 -71.18644,-33.62415 -19.68347,-11.28585 -24.40678,-14.67043 -24.40678,-17.48913 0,-3.50208 9.3175,-17.88044 16.85021,-26.00248 3.38712,-3.65212 6.34803,-4.78649 14.3195,-5.48601 3.09597,-0.27169 7.01669,-0.85222 8.71271,-1.29009 9.38135,-2.42196 22.04454,-12.36065 24.71359,-19.39642 0.60966,-1.60712 1.98733,-7.54605 3.06149,-13.19762 3.25387,-17.12006 3.05895,-16.72419 12.04023,-24.45332 7.37615,-6.34778 11.02082,-10.49391 14.51181,-16.50845 5.19931,-8.95774 6.97862,-18.37133 5.94924,-31.47491 -0.3442,-4.38158 -0.47692,-8.95942 -0.29494,-10.17298 0.51732,-3.44973 2.29232,-6.68671 8.17667,-14.91136 8.58094,-11.99372 9.75321,-14.91274 10.18513,-25.36151 0.65977,-15.96064 7.73442,-47.48837 14.64103,-65.246849 3.42564,-8.808124 14.10917,-28.808188 18.75407,-35.108503 3.05928,-4.149587 4.84339,-5.709767 12.25853,-10.719929 5.68893,-3.843812 7.51329,-4.807658 10.36814,-5.477676 6.74359,-1.582684 10.99562,-0.472782 21.00682,5.483386 4.93323,2.935023 8.29382,5.930081 9.69454,8.640048 1.26906,2.455239 3.40869,9.892282 4.06737,14.137564 0.71061,4.580018 0.0791,7.109741 -3.55666,14.246684 -8.12334,15.946134 -18.29354,47.189005 -21.93126,67.372885 -0.95341,5.28994 -1.06237,7.28549 -0.81903,15 0.5633,17.85787 5.36786,32.12697 17.11105,50.81825 10.16988,16.18708 12.89668,24.36392 12.89668,38.67327 0,19.29861 -7.05778,37.91098 -24.48721,64.57627 -2.65055,4.05509 -8.48362,13.43644 -12.96238,20.84746 -22.6619,37.49875 -28.80584,43.94919 -48.40293,50.81761 -10.70957,3.7535 -17.03614,5.17673 -23.8983,5.37614 -3.35593,0.0975 -6.67373,0.0668 -7.37288,-0.0682 z"
     id="path3345"
     inkscape:connector-curvature="0" />
  <path
     style="fill:#3771c8"
     d=""
     id="path3427"
     inkscape:connector-curvature="0" />
  <path
     style="fill:#3771c8"
     d=""
     id="path3429"
     inkscape:connector-curvature="0" />
</svg>
